# xmcd
#
# Track frame offsets:
#	183
#	19663
#	37638
#	56588
#	79678
#	102983
#	119640
#	136893
#	154995
#	176950
#
# Disc length: 2609 seconds
# Revision: 4
# Processed by: cddbd v1.5.2PL0 Copyright (c) Steve Scherf et al.
# Submitted via: dBpowerAMP V12.0
#
DISCID=7e0a2f0a
DTITLE=RonDavidMoore,Clarksville,TN - 01-The Vision's Clear
DYEAR=1991
DGENRE=Country
TTITLE0=In The Book Of Love
TTITLE1=I Give You My Word
TTITLE2=Come Be A Soldier
TTITLE3=Weary By Now
TTITLE4=The Vision's Clear
TTITLE5=Friend For Life
TTITLE6=When I Didn't Have A Prayer {I Had You}
TTITLE7=Secret Scars
TTITLE8=Isn't It A Wonder
TTITLE9=You Can't Take It With You
EXTD=
EXTT0=
EXTT1=
EXTT2=
EXTT3=
EXTT4=
EXTT5=
EXTT6=
EXTT7=
EXTT8=
EXTT9=
PLAYORDER=
